<?xml version="1.0" encoding="UTF-8" standalone="no"?>
<!-- Created with Inkscape (http://www.inkscape.org/) -->

<svg
   xmlns:dc="http://purl.org/dc/elements/1.1/"
   xmlns:cc="http://creativecommons.org/ns#"
   xmlns:rdf="http://www.w3.org/1999/02/22-rdf-syntax-ns#"
   xmlns:svg="http://www.w3.org/2000/svg"
   xmlns="http://www.w3.org/2000/svg"
   xmlns:sodipodi="http://sodipodi.sourceforge.net/DTD/sodipodi-0.dtd"
   xmlns:inkscape="http://www.inkscape.org/namespaces/inkscape"
   width="54.578411mm"
   height="81.442268mm"
   viewBox="0 0 193.38807 288.57497"
   id="svg2"
   version="1.1"
   inkscape:version="0.91 r13725"
   sodipodi:docname="lake-outline.svg">
  <defs
     id="defs4" />
  <sodipodi:namedview
     id="base"
     pagecolor="#ffffff"
     bordercolor="#666666"
     borderopacity="1.0"
     inkscape:pageopacity="0.0"
     inkscape:pageshadow="2"
     inkscape:zoom="1.979899"
     inkscape:cx="100.14227"
     inkscape:cy="143.96694"
     inkscape:document-units="px"
     inkscape:current-layer="layer1"
     showgrid="false"
     fit-margin-top="6"
     fit-margin-left="6"
     fit-margin-right="6"
     fit-margin-bottom="6"
     inkscape:window-width="1387"
     inkscape:window-height="855"
     inkscape:window-x="53"
     inkscape:window-y="1"
     inkscape:window-maximized="1" />
  <metadata
     id="metadata7">
    <rdf:RDF>
      <cc:Work
         rdf:about="">
        <dc:format>image/svg+xml</dc:format>
        <dc:type
           rdf:resource="http://purl.org/dc/dcmitype/StillImage" />
        <dc:title></dc:title>
      </cc:Work>
    </rdf:RDF>
  </metadata>
  <g
     inkscape:label="Layer 1"
     inkscape:groupmode="layer"
     id="layer1"
     transform="translate(-209.59011,-124.71088)">
    <path
       style="fill:none;fill-rule:evenodd;stroke:#e2e2e2;stroke-width:3;stroke-linecap:butt;stroke-linejoin:miter;stroke-miterlimit:4;stroke-dasharray:none;stroke-opacity:1"
       d="m 308.07669,151.85318 c -18.66524,-2.01145 -43.96073,-11.99522 -57.07415,7.21048 -8.20982,16.84511 -8.13586,36.6552 -8.02579,55.06414 0.52601,19.44782 -3.81484,38.45043 -2.174,57.97261 6.76013,18.33015 -12.01959,29.21537 -7.83861,45.68481 14.64525,9.17328 30.73014,17.62414 47.22854,23.58004 14.26382,13.37948 25.87121,29.03569 34.75202,45.80834 20.10851,12.79922 34.58346,-13.92546 26.14992,-30.94314 -13.63243,-26.17238 22.36541,-24.73882 28.26024,-44.434 6.96753,-18.47759 14.33225,-38.65167 9.06828,-58.58306 -17.43984,-19.87157 -36.65341,-40.66038 -42.87925,-67.05892 -9.73488,-7.65813 -10.55323,-36.53543 -27.4672,-34.3013 z"
       id="path4136"
       inkscape:connector-curvature="0" />
  </g>
</svg>
